<?xml version="1.0" encoding="utf-8"?>
<!-- Svg Vector Icons : http://www.onlinewebfonts.com/icon -->
<!DOCTYPE svg PUBLIC "-//W3C//DTD SVG 1.1//EN" "http://www.w3.org/Graphics/SVG/1.1/DTD/svg11.dtd">
<svg version="1.1" xmlns="http://www.w3.org/2000/svg" xmlns:xlink="http://www.w3.org/1999/xlink" x="0px" y="0px" viewBox="0 0 1000 1000" enable-background="new 0 0 1000 1000" xml:space="preserve">
<metadata> Svg Vector Icons : http://www.onlinewebfonts.com/icon </metadata>
<g><g transform="translate(0.000000,511.000000) scale(0.100000,-0.100000)"><path d="M4893.1,3985c-546.5-47.9-1131.4-253.1-1580.1-550.4c-218.6-145.7-525.4-450.6-657.7-655.8c-132.3-203.3-230.1-439.1-276.1-659.7l-34.5-172.6l-182.2-26.8c-329.8-46-694.2-189.9-997.2-393.1C981.2,1403.9,641.7,1064.5,519,880.4C336.8,608.1,206.4,301.3,137.4-20.9c-49.9-228.2-49.9-730.6,0-958.8c107.4-496.7,320.2-887.8,680.8-1248.4c467.9-467.9,983.7-692.2,1656.8-721l281.9-11.5v203.3v205.2h-128.5c-450.6,0-884,128.5-1234.9,366.3c-170.7,113.1-400.8,341.3-517.8,510.1C453.8-1064.1,384.8-300.9,695.4,356.9c109.3,232,201.4,368.2,364.4,540.8c184.1,195.6,347.1,314.5,594.5,435.3c251.2,120.8,443,174.5,728.7,201.4c117,11.5,230.1,26.8,253.1,36.4c74.8,30.7,105.5,105.5,122.7,293.4c44.1,460.2,283.8,853.3,724.9,1181.3c287.6,212.9,713.4,397,1110.3,483.2c262.7,55.6,755.6,69,1004.9,28.8c955-157.2,1756.5-857.2,2094-1831.3c109.3-314.5,147.6-538.9,163-937.7l11.5-352.9l59.4-51.8c49.9-46,82.5-55.6,210.9-67.1C8749.4,262.9,9219.3-88,9412.9-636.4c306.8-862.9-264.6-1781.5-1179.3-1896.5c-84.4-9.6-295.3-19.2-466-19.2H7455v-203.3v-203.3l456.4,7.7c381.6,7.6,477.5,15.3,600.2,49.9c349,94,611.7,247.4,861,500.5c247.4,249.3,406.5,533.1,492.8,876.3c46,182.2,46,638.6,0,820.7c-88.2,354.8-239.7,621.3-502.4,884c-276.1,274.2-567.6,435.3-920.4,504.3c-84.4,17.3-155.3,30.7-157.3,32.6c0,0-11.5,117-24.9,258.9c-38.3,473.7-141.9,853.3-335.6,1256C7499.1,3112.5,6697.6,3753,5794.4,3937.1C5487.6,4000.4,5217.2,4013.8,4893.1,3985z"/><path d="M4636.1,518c-69-5.8-141.9-23-163-34.5c-21.1-11.5-278.1-262.7-569.5-556.1l-533.1-535v-134.2c-5.7-1334.7,5.8-2895.6,21.1-2926.3c11.5-19.2,47.9-53.7,80.5-72.9c59.5-36.4,109.3-38.4,1514.9-38.4c1562.9,0,1541.8-1.9,1612.8,97.8c28.8,40.3,30.7,228.2,30.7,2065.3V404.8l-55.6,55.6l-55.6,55.6h-824.6c-452.6,0-847.6,3.8-878.3,7.7C4785.7,527.5,4705.2,525.6,4636.1,518z M6227.8-1622.1v-1735.4H5000.5H3773.2v1121.8v1121.8h548.5h548.4l65.2,65.2l65.2,65.2v548.4v548.4h613.7h613.6V-1622.1z M4590.1-686.3c-7.7-19.2-95.9-24.9-370.1-24.9h-360.5l364.3,364.3l364.4,364.3l5.7-339.4C4595.9-509.9,4593.9-672.9,4590.1-686.3z"/><path d="M4557.5-1683.5c-235.9-234-364.4-375.8-372-410.4c-24.9-113.1,84.4-247.4,201.3-247.4c65.2,0,117,34.5,264.6,178.4l138.1,136.1v-475.6c0-533.1,9.6-579.1,124.6-632.8c78.6-38.3,94-38.3,172.6,0c115.1,53.7,124.6,99.7,124.6,632.8v475.6l140-136.1c74.8-74.8,157.2-145.7,180.3-157.3c145.7-74.8,326,78.6,274.2,235.9c-11.5,38.3-143.8,186-370.1,410.4C4964.1-1206,5036.9-1206,4557.5-1683.5z"/></g></g>
</svg>