<svg width="47" height="47" viewBox="0 0 47 47" fill="none" xmlns="http://www.w3.org/2000/svg">
<path d="M30.088 19.696L31.811 30.714L20.768 32.302L19.042 21.284L30.088 19.696ZM31.373 18.029L17.3 20.053L19.539 34.336L33.607 32.316L31.378 18.024L31.373 18.029Z" fill="#A9B1BC"/>
<path d="M2.48999 6.94099L11.214 5.559C16.055 4.793 20.669 8.145 21.435 12.985L21.437 12.998L23.248 24.427L11.801 26.24C6.961 27.007 2.34699 23.655 1.57999 18.814L0.198001 10.09C-0.037999 8.59699 0.996017 7.17299 2.48902 6.93699L2.48999 6.94099Z" fill="#4B89DA"/>
<path d="M32.482 2.179L41.206 0.796994C42.702 0.559994 44.127 1.596 44.364 3.091L45.746 11.816C46.513 16.658 43.159 21.275 38.316 22.042H38.312L26.866 23.855L25.052 12.405C24.285 7.562 27.639 2.946 32.482 2.179Z" fill="#8AC054"/>
<path d="M13.585 29.521L23.795 27.904L25.271 37.228C25.918 41.313 23.09 45.207 19.005 45.854L12.125 46.943C10.791 47.155 9.51901 46.231 9.30801 44.896L8.074 37.107C7.505 33.514 9.99299 30.09 13.585 29.521Z" fill="#9ED36A"/>
<path d="M27.411 27.327L37.633 25.708C41.225 25.139 44.649 27.627 45.218 31.22L46.451 39.001C46.662 40.335 45.738 41.607 44.403 41.818L37.512 42.91C33.427 43.557 29.533 40.728 28.886 36.643L27.411 27.327Z" fill="#5E9CEA"/>
</svg>
